<svg id="svg" version="1.1" xmlns="http://www.w3.org/2000/svg" xmlns:xlink="http://www.w3.org/1999/xlink" width="400" height="433.3333333333333" viewBox="0, 0, 400,433.3333333333333"><g id="svgg"><path id="path0" d="M186.467 33.524 C 186.870 33.585,187.530 33.585,187.933 33.524 C 188.337 33.463,188.007 33.413,187.200 33.413 C 186.393 33.413,186.063 33.463,186.467 33.524 M212.067 33.524 C 212.470 33.585,213.130 33.585,213.533 33.524 C 213.937 33.463,213.607 33.413,212.800 33.413 C 211.993 33.413,211.663 33.463,212.067 33.524 M179.000 33.784 C 179.257 33.851,179.677 33.851,179.933 33.784 C 180.190 33.717,179.980 33.662,179.467 33.662 C 178.953 33.662,178.743 33.717,179.000 33.784 M220.067 33.784 C 220.323 33.851,220.743 33.851,221.000 33.784 C 221.257 33.717,221.047 33.662,220.533 33.662 C 220.020 33.662,219.810 33.717,220.067 33.784 M33.406 125.600 C 33.406 126.260,33.458 126.530,33.522 126.200 C 33.585 125.870,33.585 125.330,33.522 125.000 C 33.458 124.670,33.406 124.940,33.406 125.600 M366.473 125.600 C 366.473 126.260,366.525 126.530,366.588 126.200 C 366.652 125.870,366.652 125.330,366.588 125.000 C 366.525 124.670,366.473 124.940,366.473 125.600 M50.273 135.800 C 52.131 164.656,57.444 191.835,65.560 213.997 L 66.537 216.667 133.269 216.734 L 200.000 216.801 200.000 258.401 L 200.000 300.000 243.300 300.000 L 286.601 300.000 289.669 296.067 C 306.238 274.824,319.710 251.442,329.655 226.667 C 331.399 222.320,333.333 217.196,333.333 216.920 C 333.333 216.854,303.333 216.800,266.667 216.800 L 200.000 216.800 200.000 175.067 L 200.000 133.333 125.057 133.333 L 50.114 133.333 50.273 135.800 M131.200 345.683 C 131.200 345.729,131.590 346.119,132.067 346.550 L 132.933 347.333 132.150 346.467 C 131.420 345.659,131.200 345.477,131.200 345.683 M267.850 346.467 L 267.067 347.333 267.933 346.550 C 268.410 346.119,268.800 345.729,268.800 345.683 C 268.800 345.477,268.580 345.659,267.850 346.467 " stroke="none" fill="#45d4d4" fill-rule="evenodd"></path><path id="path1" d="M180.800 17.894 C 127.061 19.885,73.542 29.911,23.733 47.319 L 16.667 49.789 16.585 81.361 C 16.487 119.204,16.738 127.844,18.410 144.198 C 29.976 257.339,96.897 359.288,195.891 414.577 L 200.000 416.871 204.109 414.577 C 303.103 359.288,370.024 257.339,381.590 144.198 C 383.262 127.844,383.513 119.203,383.415 81.370 L 383.333 49.807 378.533 48.099 C 316.650 26.072,247.051 15.440,180.800 17.894 M218.170 33.604 C 261.878 35.356,303.643 42.490,344.713 55.218 C 350.037 56.868,363.998 61.559,365.692 62.267 L 366.667 62.674 366.667 93.549 C 366.667 130.500,366.368 138.071,364.237 155.067 C 351.734 254.808,293.222 342.667,205.920 392.788 C 202.843 394.555,200.179 396.000,200.000 396.000 C 199.821 396.000,197.157 394.555,194.080 392.788 C 106.777 342.666,48.267 254.810,35.763 155.067 C 33.632 138.071,33.333 130.500,33.333 93.549 L 33.333 62.674 34.308 62.267 C 36.002 61.559,49.963 56.868,55.287 55.218 C 107.700 38.974,164.406 31.450,218.170 33.604 " stroke="none" fill="#344c5c" fill-rule="evenodd"></path><path id="path2" d="M200.000 91.733 L 200.000 133.333 274.933 133.333 L 349.867 133.333 349.867 104.559 L 349.867 75.784 347.667 74.991 C 305.730 59.870,250.546 50.147,206.600 50.135 L 200.000 50.133 200.000 91.733 " stroke="none" fill="#fc7474" fill-rule="evenodd"></path><path id="path3" d="M182.933 33.621 C 132.958 35.409,82.396 45.072,36.000 61.702 L 33.467 62.610 33.385 91.372 C 33.278 129.461,33.680 139.096,36.151 157.600 C 49.489 257.460,109.206 345.373,197.000 394.391 L 200.000 396.066 203.000 394.391 C 290.794 345.373,350.511 257.460,363.849 157.600 C 366.320 139.096,366.722 129.461,366.615 91.372 L 366.533 62.610 364.000 61.702 C 306.846 41.216,243.831 31.443,182.933 33.621 M212.933 50.136 C 252.650 51.391,290.751 57.496,327.733 68.531 C 334.527 70.558,349.350 75.441,349.800 75.799 C 350.167 76.092,350.299 120.254,349.958 128.891 L 349.783 133.333 274.891 133.333 L 200.000 133.333 200.000 175.067 L 200.000 216.800 266.667 216.800 C 303.333 216.800,333.333 216.854,333.333 216.920 C 333.333 217.196,331.399 222.320,329.655 226.667 C 319.710 251.442,306.238 274.824,289.669 296.067 L 286.601 300.000 243.300 300.000 L 200.000 300.000 200.000 335.733 C 200.000 355.387,199.948 371.467,199.885 371.467 C 199.822 371.467,197.812 370.376,195.419 369.043 C 166.301 352.830,139.955 331.174,117.748 305.200 C 115.742 302.853,113.983 300.723,113.841 300.467 C 113.594 300.023,115.718 300.000,156.791 300.000 L 200.000 300.000 200.000 258.401 L 200.000 216.801 133.269 216.734 L 66.537 216.667 65.560 213.997 C 57.444 191.835,52.131 164.656,50.273 135.800 L 50.114 133.333 125.057 133.333 L 200.000 133.333 200.000 91.600 L 200.000 49.867 202.333 49.871 C 203.617 49.873,208.387 49.992,212.933 50.136 " stroke="none" fill="#fbfbfb" fill-rule="evenodd"></path><path id="path4" d="M201.946 50.065 C 203.089 50.115,204.889 50.115,205.946 50.064 C 207.002 50.014,206.067 49.973,203.867 49.973 C 201.667 49.974,200.802 50.015,201.946 50.065 M215.936 50.322 C 216.268 50.386,216.748 50.383,217.003 50.317 C 217.258 50.250,216.987 50.198,216.400 50.201 C 215.813 50.204,215.605 50.258,215.936 50.322 M349.995 101.733 C 349.995 115.960,350.027 121.741,350.067 114.580 C 350.106 107.419,350.106 95.779,350.067 88.713 C 350.027 81.648,349.995 87.507,349.995 101.733 M113.841 300.467 C 113.983 300.723,115.742 302.853,117.748 305.200 C 139.955 331.174,166.301 352.830,195.419 369.043 C 197.812 370.376,199.822 371.467,199.885 371.467 C 199.948 371.467,200.000 355.387,200.000 335.733 L 200.000 300.000 156.791 300.000 C 115.718 300.000,113.594 300.023,113.841 300.467 " stroke="none" fill="#fcd464" fill-rule="evenodd"></path></g></svg>